<svg width="20" height="20" viewBox="0 0 20 20" fill="none" xmlns="http://www.w3.org/2000/svg">
<path d="M7.42516 17.2246C7.26683 17.2246 7.1085 17.1663 6.9835 17.0413C6.74183 16.7996 6.74183 16.3996 6.9835 16.158L12.4168 10.7246C12.8168 10.3246 12.8168 9.67462 12.4168 9.27462L6.9835 3.84129C6.74183 3.59962 6.74183 3.19962 6.9835 2.95795C7.22516 2.71629 7.62516 2.71629 7.86683 2.95795L13.3002 8.39129C13.7252 8.81629 13.9668 9.39129 13.9668 9.99962C13.9668 10.608 13.7335 11.183 13.3002 11.608L7.86683 17.0413C7.74183 17.158 7.5835 17.2246 7.42516 17.2246Z" fill="#676D75"/>
</svg>
