<svg width="16" height="17" viewBox="0 0 16 17" fill="none" xmlns="http://www.w3.org/2000/svg">
<path d="M10.0603 13.902C10.1869 13.902 10.3136 13.8553 10.4136 13.7553C10.6069 13.562 10.6069 13.242 10.4136 13.0486L6.06693 8.70196C5.74693 8.38196 5.74693 7.86196 6.06693 7.54196L10.4136 3.19529C10.6069 3.00196 10.6069 2.68196 10.4136 2.48863C10.2203 2.29529 9.90026 2.29529 9.70693 2.48863L5.36026 6.83529C5.02026 7.17529 4.82693 7.63529 4.82693 8.12196C4.82693 8.60863 5.01359 9.06863 5.36026 9.40863L9.70693 13.7553C9.80693 13.8486 9.93359 13.902 10.0603 13.902Z" fill="white"/>
</svg>
