<svg width="25" height="24" viewBox="0 0 25 24" fill="none" xmlns="http://www.w3.org/2000/svg">
<path d="M4.125 18.75C3.715 18.75 3.375 18.41 3.375 18V7C3.375 2.59 4.715 1.25 9.125 1.25H16.125C20.535 1.25 21.875 2.59 21.875 7V17C21.875 17.16 21.875 17.31 21.865 17.47C21.835 17.88 21.465 18.2 21.065 18.17C20.655 18.14 20.335 17.78 20.365 17.37C20.375 17.25 20.375 17.12 20.375 17V7C20.375 3.43 19.705 2.75 16.125 2.75H9.125C5.545 2.75 4.875 3.43 4.875 7V18C4.875 18.41 4.535 18.75 4.125 18.75Z" fill="#484C52"/>
<path d="M17.625 22.75H7.625C5.285 22.75 3.375 20.84 3.375 18.5V17.85C3.375 15.86 4.995 14.25 6.975 14.25H21.125C21.535 14.25 21.875 14.59 21.875 15V18.5C21.875 20.84 19.965 22.75 17.625 22.75ZM6.975 15.75C5.815 15.75 4.875 16.69 4.875 17.85V18.5C4.875 20.02 6.105 21.25 7.625 21.25H17.625C19.145 21.25 20.375 20.02 20.375 18.5V15.75H6.975Z" fill="#484C52"/>
<path d="M16.625 7.75H8.625C8.215 7.75 7.875 7.41 7.875 7C7.875 6.59 8.215 6.25 8.625 6.25H16.625C17.035 6.25 17.375 6.59 17.375 7C17.375 7.41 17.035 7.75 16.625 7.75Z" fill="#484C52"/>
<path d="M13.625 11.25H8.625C8.215 11.25 7.875 10.91 7.875 10.5C7.875 10.09 8.215 9.75 8.625 9.75H13.625C14.035 9.75 14.375 10.09 14.375 10.5C14.375 10.91 14.035 11.25 13.625 11.25Z" fill="#484C52"/>
</svg>
