<svg width="43" height="42" viewBox="0 0 43 42" fill="none" xmlns="http://www.w3.org/2000/svg">
<path d="M12.3303 38.5H30.6703C35.5003 38.5 37.4253 35.5425 37.6528 31.9375L38.5628 17.4825C38.8078 13.7025 35.7978 10.5 32.0003 10.5C30.9328 10.5 29.9528 9.8875 29.4628 8.9425L28.2028 6.405C27.3978 4.8125 25.2978 3.5 23.5128 3.5H19.5053C17.7028 3.5 15.6028 4.8125 14.7978 6.405L13.5378 8.9425C13.0478 9.8875 12.0678 10.5 11.0003 10.5C7.20279 10.5 4.19279 13.7025 4.43779 17.4825L5.34779 31.9375C5.55779 35.5425 7.50029 38.5 12.3303 38.5Z" stroke="#3D5CFF" stroke-width="2.625" stroke-linecap="round" stroke-linejoin="round"/>
<path opacity="0.4" d="M18.875 14H24.125" stroke="#3D5CFF" stroke-width="2.625" stroke-linecap="round" stroke-linejoin="round"/>
<path opacity="0.4" d="M21.5 31.5C24.6325 31.5 27.1875 28.945 27.1875 25.8125C27.1875 22.68 24.6325 20.125 21.5 20.125C18.3675 20.125 15.8125 22.68 15.8125 25.8125C15.8125 28.945 18.3675 31.5 21.5 31.5Z" stroke="#3D5CFF" stroke-width="2.625" stroke-linecap="round" stroke-linejoin="round"/>
</svg>
