<svg width="35" height="34" viewBox="0 0 35 34" fill="none" xmlns="http://www.w3.org/2000/svg">
<rect x="1.5" y="1" width="32" height="32" rx="16" fill="#3D5CFF"/>
<rect x="1.5" y="1" width="32" height="32" rx="16" stroke="white" stroke-width="1.5"/>
<path d="M22.0001 12.5C21.5426 12.5 21.1226 12.2375 20.9126 11.8325L20.3726 10.745C20.0276 10.0625 19.1276 9.5 18.3626 9.5H16.6451C15.8726 9.5 14.9726 10.0625 14.6276 10.745L14.0876 11.8325C13.8776 12.2375 13.4576 12.5 13.0001 12.5C11.3726 12.5 10.0826 13.8725 10.1876 15.4925L10.5776 21.6875C10.6676 23.2325 11.5001 24.5 13.5701 24.5H21.4301C23.5001 24.5 24.3251 23.2325 24.4226 21.6875L24.8126 15.4925C24.9176 13.8725 23.6276 12.5 22.0001 12.5ZM16.3751 13.4375H18.6251C18.9326 13.4375 19.1876 13.6925 19.1876 14C19.1876 14.3075 18.9326 14.5625 18.6251 14.5625H16.3751C16.0676 14.5625 15.8126 14.3075 15.8126 14C15.8126 13.6925 16.0676 13.4375 16.3751 13.4375ZM17.5001 21.59C16.1051 21.59 14.9651 20.4575 14.9651 19.055C14.9651 17.6525 16.0976 16.52 17.5001 16.52C18.9026 16.52 20.0351 17.6525 20.0351 19.055C20.0351 20.4575 18.8951 21.59 17.5001 21.59Z" fill="white"/>
</svg>
