<svg width="16" height="16" viewBox="0 0 16 16" fill="none" xmlns="http://www.w3.org/2000/svg">
<path d="M4.66667 4.66667V10.2222M6.88889 4.66667V6.33333M9.11111 4.66667V8.55556M11.3333 4.66667V7.44444M3 3.33333V12.6667C3 12.7551 3.03512 12.8399 3.09763 12.9024C3.16014 12.9649 3.24493 13 3.33333 13H12.6667C12.7551 13 12.8399 12.9649 12.9024 12.9024C12.9649 12.8399 13 12.7551 13 12.6667V3.33333C13 3.24493 12.9649 3.16014 12.9024 3.09763C12.8399 3.03512 12.7551 3 12.6667 3H3.33333C3.24493 3 3.16014 3.03512 3.09763 3.09763C3.03512 3.16014 3 3.24493 3 3.33333Z" stroke="#3D5CFF" stroke-linecap="round" stroke-linejoin="round"/>
</svg>
