<svg width="14" height="14" viewBox="0 0 14 14" fill="none" xmlns="http://www.w3.org/2000/svg">
<path fill-rule="evenodd" clip-rule="evenodd" d="M5.54175 2.33331C3.63541 2.33331 2.04175 3.7444 2.04175 5.54165C2.04175 6.25448 2.2955 6.91073 2.71958 7.4404L2.34391 8.81881C2.33054 8.87131 2.33193 8.92649 2.34794 8.97825C2.36394 9.03 2.39394 9.07633 2.43461 9.11212C2.47529 9.14791 2.52506 9.17176 2.57843 9.18104C2.63181 9.19032 2.68671 9.18468 2.73708 9.16473L4.37041 8.48456C4.44181 8.45478 4.49846 8.39786 4.52788 8.32631C4.55731 8.25477 4.55711 8.17446 4.52733 8.10306C4.49755 8.03166 4.44063 7.97502 4.36908 7.94559C4.29753 7.91617 4.21723 7.91636 4.14583 7.94615L3.06316 8.39706L3.32275 7.44623C3.33549 7.39952 3.3364 7.35037 3.3254 7.30322C3.3144 7.25607 3.29184 7.2124 3.25975 7.17615C2.86016 6.72465 2.62508 6.15706 2.62508 5.54165C2.62508 4.11773 3.90433 2.91665 5.54175 2.91665C6.88925 2.91665 7.99758 3.73215 8.34467 4.81423C6.48967 4.86906 4.95842 6.25915 4.95842 8.02081C4.95842 9.81806 6.55208 11.2291 8.45842 11.2291C8.89414 11.2297 9.32669 11.1551 9.73708 11.0086L11.2631 11.6445C11.4824 11.7355 11.7192 11.5278 11.6562 11.298L11.2806 9.91956C11.7172 9.38291 11.9565 8.71267 11.9584 8.02081C11.9584 6.3834 10.636 5.06681 8.95892 4.84515C8.60891 3.39148 7.1955 2.33331 5.54175 2.33331ZM5.54175 8.02081C5.54175 6.5969 6.821 5.39581 8.45842 5.39581C10.0958 5.39581 11.3751 6.5969 11.3751 8.02081C11.3751 8.63623 11.14 9.20381 10.7404 9.65531C10.7083 9.69157 10.6858 9.73524 10.6748 9.78239C10.6638 9.82954 10.6647 9.87869 10.6774 9.9254L10.937 10.8762L9.85433 10.4253C9.78406 10.3961 9.70514 10.3954 9.63442 10.4236C9.25983 10.5708 8.86089 10.6461 8.45842 10.6458C6.821 10.6458 5.54175 9.44531 5.54175 8.02081Z" fill="white"/>
</svg>
