<svg width="19" height="18" viewBox="0 0 19 18" fill="none" xmlns="http://www.w3.org/2000/svg">
<path d="M0.812485 0H5.31248C5.34248 0 5.36248 -9.31323e-09 5.39248 0.00999999C5.42248 -9.31323e-09 5.45249 0 5.48248 0H14.1725C15.4825 0 16.6125 0.93 16.8725 2.21L18.0725 8.21C18.2325 9.02 18.0225 9.85 17.5025 10.49C16.9725 11.13 16.2025 11.5 15.3725 11.5H11.7125L12.5125 14.48C12.7425 15.33 12.5625 16.21 12.0325 16.91C11.5025 17.6 10.6925 18 9.81248 18C9.56248 18 9.33249 17.88 9.19248 17.68L4.91249 11.5H0.812485C0.402485 11.5 0.0624847 11.16 0.0624847 10.75V0.75C0.0624847 0.34 0.402485 0 0.812485 0ZM10.1725 16.45C10.4325 16.38 10.6725 16.22 10.8425 15.99C11.0925 15.67 11.1725 15.27 11.0625 14.88L10.0025 10.95C9.94248 10.72 9.99249 10.48 10.1325 10.29C10.2725 10.11 10.4925 10 10.7325 10H15.3725C15.7525 10 16.1025 9.83 16.3425 9.54C16.5725 9.25 16.6725 8.87 16.6025 8.5L15.4025 2.5C15.2825 1.92 14.7625 1.5 14.1725 1.5H6.06248V10.51L10.1725 16.45ZM1.56248 10H4.56248V1.5H1.56248V10Z" fill="#E7329C"/>
</svg>
