<svg width="24" height="24" viewBox="0 0 24 24" fill="none" xmlns="http://www.w3.org/2000/svg">
<path d="M12 2C13.1 2 14 2.9 14 4C14 5.1 13.1 6 12 6C10.9 6 10 5.1 10 4C10 2.9 10.9 2 12 2ZM21 9V7L15 6.5V7.5C15 8.3 14.3 9 13.5 9S12 8.3 12 7.5V6L9 6.5V7.5C9 8.3 8.3 9 7.5 9S6 8.3 6 7.5V6.5L3 7V9C3 10.1 3.9 11 5 11H19C20.1 11 21 10.1 21 9ZM12 13.5C11.2 13.5 10.5 14.2 10.5 15S11.2 16.5 12 16.5S13.5 15.8 13.5 15S12.8 13.5 12 13.5ZM12 11C10.3 11 8.8 11.9 8.1 13.3L6.6 20.6C6.4 21.4 7 22 7.8 22H16.2C17 22 17.6 21.4 17.4 20.6L15.9 13.3C15.2 11.9 13.7 11 12 11Z" fill="#3D5CFF"/>
</svg>