<svg width="19" height="18" viewBox="0 0 19 18" fill="none" xmlns="http://www.w3.org/2000/svg">
<path d="M0.749985 18H5.24998C5.27998 18 5.29998 18 5.32998 17.99C5.35998 18 5.38999 18 5.41998 18H14.11C15.42 18 16.55 17.07 16.81 15.79L18.01 9.79C18.17 8.98 17.96 8.15 17.44 7.51C16.91 6.87 16.14 6.5 15.31 6.5H11.65L12.45 3.52C12.68 2.67 12.5 1.79 11.97 1.09C11.44 0.4 10.63 0 9.74998 0C9.49998 0 9.26999 0.119999 9.12998 0.32L4.84999 6.5H0.749985C0.339985 6.5 -1.52588e-05 6.84 -1.52588e-05 7.25V17.25C-1.52588e-05 17.66 0.339985 18 0.749985 18ZM10.11 1.55C10.37 1.62 10.61 1.78 10.78 2.01C11.03 2.33 11.11 2.73 11 3.12L9.93998 7.05C9.87998 7.28 9.92999 7.52 10.07 7.71C10.21 7.89 10.43 8 10.67 8H15.31C15.69 8 16.04 8.17 16.28 8.46C16.51 8.75 16.61 9.13 16.54 9.5L15.34 15.5C15.22 16.08 14.7 16.5 14.11 16.5H5.99998V7.49L10.11 1.55ZM1.49998 8H4.49998V16.5H1.49998V8Z" fill="#3D5CFF"/>
</svg>
