<svg width="24" height="24" viewBox="0 0 24 24" fill="none" xmlns="http://www.w3.org/2000/svg">
<g clip-path="url(#clip0_123_661)">
<path d="M21.03 2.97999C17.831 -0.219007 13.556 -0.959007 11.3 1.29799C8.202 4.39599 6.424 8.49999 6.014 13.496C5.941 14.38 6.149 15.249 6.595 15.99L2.812 19.774C2.556 19.313 2.064 19.001 1.5 19.001C0.672 19.001 0 19.673 0 20.501C0 21.329 0.672 22.001 1.5 22.001C1.731 22.001 1.95 21.949 2.146 21.855C2.053 22.051 2 22.27 2 22.501C2 23.329 2.672 24.001 3.5 24.001C4.328 24.001 5 23.329 5 22.501C5 21.936 4.688 21.444 4.226 21.189L8.009 17.405C8.653 17.793 9.395 18.001 10.158 18.001C10.273 18.001 10.388 17.996 10.503 17.987C15.514 17.576 19.622 15.8 22.711 12.711C24.967 10.455 24.229 6.18099 21.029 2.98099L21.03 2.97999ZM19.616 4.39399C21.942 6.72099 22.713 9.88099 21.298 11.296C19.884 12.711 16.723 11.94 14.396 9.61299C13.198 8.41499 12.385 6.99499 12.106 5.61499C11.856 4.38399 12.073 3.35199 12.714 2.71099C13.195 2.22999 13.879 2.00199 14.663 2.00199C16.183 2.00199 18.081 2.85999 19.616 4.39399ZM10.341 15.992C9.701 16.053 9.079 15.817 8.631 15.369C8.183 14.921 7.956 14.298 8.008 13.66C8.242 10.806 8.962 8.28499 10.156 6.11899C10.516 7.77799 11.477 9.52199 12.982 11.027C14.487 12.532 16.227 13.491 17.885 13.852C15.722 15.04 13.199 15.758 10.341 15.992ZM16.28 7.72999C15.555 7.00499 15.292 6.09299 15.693 5.69199C16.094 5.29099 17.006 5.55399 17.731 6.27899C18.456 7.00399 18.719 7.91599 18.318 8.31699C17.917 8.71799 17.005 8.45499 16.28 7.72999Z" fill="#3D5CFF"/>
</g>
<defs>
<clipPath id="clip0_123_661">
<rect width="24" height="24" fill="white"/>
</clipPath>
</defs>
</svg>
