<svg width="15" height="15" viewBox="0 0 15 15" fill="none" xmlns="http://www.w3.org/2000/svg">
<path fill-rule="evenodd" clip-rule="evenodd" d="M6.04175 2.81235C4.13541 2.81235 2.54175 4.22343 2.54175 6.02068C2.54175 6.73351 2.7955 7.38976 3.21958 7.91943L2.84391 9.29785C2.83054 9.35035 2.83193 9.40552 2.84794 9.45728C2.86394 9.50904 2.89394 9.55537 2.93461 9.59115C2.97529 9.62694 3.02506 9.65079 3.07843 9.66008C3.13181 9.66936 3.18671 9.66371 3.23708 9.64376L4.87041 8.9636C4.94181 8.93382 4.99846 8.87689 5.02788 8.80535C5.05731 8.7338 5.05711 8.6535 5.02733 8.5821C4.99755 8.5107 4.94063 8.45405 4.86908 8.42463C4.79753 8.3952 4.71723 8.3954 4.64583 8.42518L3.56316 8.8761L3.82275 7.92526C3.83549 7.87855 3.8364 7.82941 3.8254 7.78226C3.8144 7.7351 3.79184 7.69143 3.75975 7.65518C3.36016 7.20368 3.12508 6.6361 3.12508 6.02068C3.12508 4.59676 4.40433 3.39568 6.04175 3.39568C7.38925 3.39568 8.49758 4.21118 8.84467 5.29326C6.98967 5.3481 5.45842 6.73818 5.45842 8.49985C5.45842 10.2971 7.05208 11.7082 8.95842 11.7082C9.39414 11.7087 9.82669 11.6341 10.2371 11.4877L11.7631 12.1235C11.9824 12.2145 12.2192 12.0068 12.1562 11.777L11.7806 10.3986C12.2172 9.86194 12.4565 9.1917 12.4584 8.49985C12.4584 6.86243 11.136 5.54585 9.45892 5.32418C9.10891 3.87051 7.6955 2.81235 6.04175 2.81235ZM6.04175 8.49985C6.04175 7.07593 7.321 5.87485 8.95842 5.87485C10.5958 5.87485 11.8751 7.07593 11.8751 8.49985C11.8751 9.11526 11.64 9.68285 11.2404 10.1343C11.2083 10.1706 11.1858 10.2143 11.1748 10.2614C11.1638 10.3086 11.1647 10.3577 11.1774 10.4044L11.437 11.3553L10.3543 10.9043C10.2841 10.8751 10.2051 10.8745 10.1344 10.9026C9.75983 11.0498 9.36089 11.1252 8.95842 11.1248C7.321 11.1248 6.04175 9.92435 6.04175 8.49985Z" fill="#3D5CFF"/>
</svg>
