<svg width="20" height="17" viewBox="0 0 20 17" fill="none" xmlns="http://www.w3.org/2000/svg">
<path d="M17 7.27V5.64C17 2.53 14.47 0 11.36 0H5.64C2.53 0 0 2.53 0 5.64V12.25C0 12.66 0.34 13 0.75 13H6.03C6.3 15.25 8.21 17 10.53 17H19.25C19.66 17 20 16.66 20 16.25V11.53C20 9.57 18.75 7.89 17 7.27ZM1.5 11.5V5.64C1.5 3.36 3.36 1.5 5.64 1.5H11.36C13.64 1.5 15.5 3.36 15.5 5.64V7.36C15.5 7.76 15.44 8.14 15.33 8.5C14.84 10.23 13.24 11.5 11.36 11.5H1.5ZM18.5 15.5H10.53C9.04 15.5 7.8 14.42 7.55 13H11.36C13.97 13 16.16 11.22 16.81 8.82C17.81 9.31 18.5 10.34 18.5 11.53V15.5Z" fill="#333333"/>
<path d="M4.5 7.50011C4.37 7.50011 4.24 7.48011 4.12 7.42011C4 7.37011 3.89 7.30011 3.79 7.21011C3.61 7.02011 3.5 6.76011 3.5 6.50011C3.5 6.24011 3.61 5.98011 3.79 5.79011C3.89 5.70011 3.99 5.63011 4.12 5.58011C4.48 5.42011 4.93 5.51011 5.21 5.79011C5.39 5.98011 5.5 6.24011 5.5 6.50011C5.5 6.76011 5.39 7.02011 5.21 7.21011C5.16 7.25011 5.11 7.29011 5.05 7.33011C5 7.37011 4.94 7.40011 4.88 7.42011C4.82 7.45011 4.76 7.47011 4.7 7.48011C4.63 7.49011 4.57 7.50011 4.5 7.50011Z" fill="#333333"/>
<path d="M8.5 7.50011C8.37 7.50011 8.24 7.48011 8.12 7.42011C7.99 7.37011 7.89 7.30011 7.79 7.21011C7.61 7.02011 7.5 6.76011 7.5 6.50011C7.5 6.24011 7.61 5.98011 7.79 5.79011C7.89 5.70011 7.99 5.63011 8.12 5.58011C8.48 5.42011 8.93 5.51011 9.21 5.79011C9.39 5.98011 9.5 6.24011 9.5 6.50011C9.5 6.76011 9.39 7.02011 9.21 7.21011C9.02 7.39011 8.76 7.50011 8.5 7.50011Z" fill="#333333"/>
<path d="M12.5 7.50013C12.24 7.50013 11.98 7.39013 11.79 7.21013C11.61 7.02013 11.5 6.76013 11.5 6.50013C11.5 6.24013 11.61 5.98013 11.79 5.79013C12.16 5.42013 12.83 5.42013 13.21 5.79013C13.39 5.98013 13.5 6.24013 13.5 6.50013C13.5 6.76013 13.39 7.02013 13.21 7.21013C13.16 7.25013 13.11 7.30013 13.05 7.33013C13 7.37013 12.94 7.40013 12.88 7.42013C12.82 7.45013 12.76 7.47013 12.69 7.48013C12.63 7.49013 12.56 7.50013 12.5 7.50013Z" fill="#333333"/>
</svg>
