<svg width="38" height="38" viewBox="0 0 38 38" fill="none" xmlns="http://www.w3.org/2000/svg">
<path d="M17.0793 6.88156C17.0179 6.82016 16.9438 6.77297 16.8622 6.74331C16.7806 6.71365 16.6935 6.70224 16.6071 6.70988C16.5206 6.71752 16.4368 6.74403 16.3617 6.78754C16.2866 6.83105 16.222 6.89051 16.1723 6.96171C14.9198 8.74941 14.2485 10.8797 14.25 13.0625C14.251 13.5301 14.2822 13.9972 14.3435 14.4608L4.02566 28.5327C3.68794 28.9894 3.52594 29.5525 3.56927 30.1189C3.61261 30.6853 3.8584 31.2171 4.26167 31.6172L6.38284 33.7384C6.7829 34.1416 7.31477 34.3874 7.88116 34.4308C8.44755 34.4741 9.01062 34.3121 9.46738 33.9744L23.5407 23.6535C24.0038 23.7158 24.4703 23.748 24.9375 23.75C27.1195 23.7521 29.2492 23.0819 31.0368 21.8307C31.108 21.781 31.1675 21.7164 31.211 21.6413C31.2545 21.5662 31.281 21.4824 31.2887 21.3959C31.2963 21.3095 31.2849 21.2224 31.2552 21.1408C31.2256 21.0592 31.1784 20.9851 31.117 20.9237L17.0793 6.88156ZM17.4667 22.2122L15.0917 24.5872C14.9825 24.7021 14.8514 24.794 14.7062 24.8574C14.5609 24.9209 14.4045 24.9546 14.246 24.9567C14.0875 24.9587 13.9302 24.929 13.7834 24.8693C13.6365 24.8095 13.5032 24.721 13.3911 24.609C13.279 24.4969 13.1905 24.3635 13.1308 24.2167C13.0711 24.0698 13.0413 23.9126 13.0434 23.7541C13.0454 23.5956 13.0791 23.4391 13.1426 23.2938C13.206 23.1486 13.2979 23.0175 13.4128 22.9084L15.7878 20.5334C16.0124 20.3201 16.3113 20.2029 16.621 20.2069C16.9306 20.2108 17.2265 20.3356 17.4455 20.5546C17.6644 20.7736 17.7892 21.0694 17.7932 21.3791C17.7971 21.6887 17.68 21.9877 17.4667 22.2122ZM33.7057 19.1603C33.6561 19.2318 33.5914 19.2914 33.5161 19.3351C33.4409 19.3788 33.3569 19.4054 33.2703 19.413C33.1836 19.4207 33.0963 19.4092 33.0146 19.3794C32.9329 19.3495 32.8587 19.3021 32.7973 19.2405L18.7596 5.20273C18.6979 5.14135 18.6505 5.06716 18.6207 4.98543C18.5909 4.9037 18.5794 4.81641 18.587 4.72975C18.5947 4.64308 18.6213 4.55915 18.6649 4.48391C18.7086 4.40866 18.7683 4.34392 18.8397 4.29429C20.8959 2.85956 23.3913 2.19417 25.8888 2.41473C28.3863 2.63529 30.7266 3.72772 32.4994 5.50059C34.2723 7.27346 35.3647 9.6137 35.5853 12.1112C35.8059 14.6087 35.1405 17.1042 33.7057 19.1603Z" fill="#3D5CFF"/>
</svg>
