<svg width="24" height="24" viewBox="0 0 24 24" fill="none" xmlns="http://www.w3.org/2000/svg">
<path d="M2.4698 15.93C2.6298 15.66 3.0798 15.24 4.1998 15.44C4.81981 15.55 5.4498 15.6 6.0798 15.57C8.4098 15.47 10.5198 14.4 11.9898 12.75C13.2898 11.3 14.0898 9.40999 14.0998 7.36999C14.0998 6.22999 13.8798 5.12999 13.4298 4.08999C12.9898 3.07999 13.2998 2.54999 13.5198 2.32999C13.7498 2.09999 14.2898 1.77999 15.3498 2.21999C19.4398 3.93999 21.9698 8.03999 21.6698 12.43C21.3698 16.56 18.4698 20.09 14.6298 21.42C13.7098 21.74 12.7398 21.93 11.7398 21.97C11.5798 21.98 11.4198 21.99 11.2598 21.99C7.9098 21.99 4.7698 20.41 2.7898 17.72C2.1198 16.79 2.2998 16.2 2.4698 15.93Z" fill="#3D5CFF"/>
</svg>
