<svg width="36" height="36" viewBox="0 0 36 36" fill="none" xmlns="http://www.w3.org/2000/svg">
<rect width="36" height="36" rx="8" fill="#3D5CFF" fill-opacity="0.1"/>
<path opacity="0.4" d="M18 12.44V15.77" stroke="#3D5CFF" stroke-width="1.5" stroke-miterlimit="10" stroke-linecap="round"/>
<path d="M18.0199 8C14.3399 8 11.3599 10.98 11.3599 14.66V16.76C11.3599 17.44 11.0799 18.46 10.7299 19.04L9.4599 21.16C8.6799 22.47 9.2199 23.93 10.6599 24.41C15.4399 26 20.6099 26 25.3899 24.41C26.7399 23.96 27.3199 22.38 26.5899 21.16L25.3199 19.04C24.9699 18.46 24.6899 17.43 24.6899 16.76V14.66C24.6799 11 21.6799 8 18.0199 8Z" stroke="#3D5CFF" stroke-width="1.5" stroke-miterlimit="10" stroke-linecap="round"/>
<path opacity="0.4" d="M21.3299 24.82C21.3299 26.65 19.8299 28.15 17.9999 28.15C17.0899 28.15 16.2499 27.77 15.6499 27.17C15.0499 26.57 14.6699 25.73 14.6699 24.82" stroke="#3D5CFF" stroke-width="1.5" stroke-miterlimit="10"/>
</svg>
