<svg width="36" height="36" viewBox="0 0 36 36" fill="none" xmlns="http://www.w3.org/2000/svg">
<rect width="36" height="36" rx="8" fill="#00FF15" fill-opacity="0.1"/>
<path d="M23.79 28.75H12.21C9.47 28.75 7.25 26.52 7.25 23.78V16.37C7.25 15.01 8.09 13.3 9.17 12.46L14.56 8.25997C16.18 6.99997 18.77 6.93997 20.45 8.11997L26.63 12.45C27.82 13.28 28.75 15.06 28.75 16.51V23.79C28.75 26.52 26.53 28.75 23.79 28.75ZM15.48 9.43997L10.09 13.64C9.38 14.2 8.75 15.47 8.75 16.37V23.78C8.75 25.69 10.3 27.25 12.21 27.25H23.79C25.7 27.25 27.25 25.7 27.25 23.79V16.51C27.25 15.55 26.56 14.22 25.77 13.68L19.59 9.34997C18.45 8.54997 16.57 8.58997 15.48 9.43997Z" fill="#4B9150"/>
<path d="M18 24.75C17.59 24.75 17.25 24.41 17.25 24V21C17.25 20.59 17.59 20.25 18 20.25C18.41 20.25 18.75 20.59 18.75 21V24C18.75 24.41 18.41 24.75 18 24.75Z" fill="#4B9150"/>
</svg>
