<svg width="9" height="11" viewBox="0 0 9 11" fill="none" xmlns="http://www.w3.org/2000/svg">
<path d="M8.5 10.479H1C0.867392 10.479 0.740215 10.4263 0.646447 10.3326C0.552678 10.2388 0.5 10.1116 0.5 9.979V9.65701C0.5 9.11101 0.5 8.679 0.529 8.324C0.543889 7.98429 0.626864 7.65104 0.773 7.344C1.01144 6.87302 1.39401 6.49045 1.865 6.252C2.17201 6.10582 2.50528 6.02284 2.845 6.008C3.2 5.979 3.632 5.979 4.178 5.979H5.321C5.868 5.979 6.3 5.979 6.654 6.008C6.99405 6.02279 7.32765 6.10576 7.635 6.252C8.10599 6.49079 8.48878 6.87324 8.728 7.344C8.87343 7.65124 8.95605 7.98442 8.971 8.324C9 8.679 9 9.11001 9 9.65701V9.979C9 10.1116 8.94732 10.2388 8.85355 10.3326C8.75979 10.4263 8.63261 10.479 8.5 10.479ZM7.845 7.815C7.92332 8.0026 7.96702 8.20283 7.974 8.406C7.96705 8.20283 7.92334 8.0026 7.845 7.815ZM2.3 7.155C2.02838 7.29946 1.80774 7.52393 1.668 7.798C1.80774 7.52393 2.02838 7.29946 2.3 7.155ZM4.2 6.979C3.609 6.979 3.231 6.979 2.927 7.005C3.231 6.979 3.609 6.979 4.2 6.979ZM4.75 4.979C4.30499 4.979 3.86998 4.84704 3.49997 4.59981C3.12996 4.35258 2.84157 4.00118 2.67127 3.59004C2.50097 3.17891 2.45642 2.72651 2.54323 2.29005C2.63005 1.85359 2.84434 1.45268 3.15901 1.13801C3.47368 0.823347 3.87459 0.609055 4.31105 0.522238C4.7475 0.435421 5.1999 0.479979 5.61104 0.650276C6.02217 0.820573 6.37357 1.10896 6.62081 1.47897C6.86804 1.84898 7 2.284 7 2.729C6.99921 3.3255 6.7619 3.89733 6.34011 4.31912C5.91833 4.7409 5.34649 4.97821 4.75 4.979ZM4.75 1.479C4.41933 1.47953 4.1023 1.61085 3.86811 1.84429C3.63392 2.07773 3.50158 2.39434 3.5 2.725C3.50158 2.39434 3.63392 2.07773 3.86811 1.84429C4.1023 1.61085 4.41933 1.47953 4.75 1.479ZM4.75 1.479C5.03758 1.47982 5.31602 1.58017 5.538 1.763C5.31737 1.58053 5.04031 1.48017 4.754 1.479H4.75Z" fill="#B8B8D2"/>
</svg>
