<svg width="40" height="41" viewBox="0 0 40 41" fill="none" xmlns="http://www.w3.org/2000/svg">
<g clip-path="url(#clip0_0_3132)">
<rect y="0.121948" width="40" height="40" rx="20" fill="white"/>
<path d="M22.3351 29.2363L23.287 23.2866L16.8614 20.6688L15.9094 29.7123L22.3351 29.2363Z" fill="#A0616A"/>
<path d="M28.7931 38.0291C28.2414 38.298 27.6792 38.5408 27.1086 38.7562C25.9674 39.1881 24.7894 39.5139 23.581 39.7314C22.3998 39.9447 21.1872 40.0529 19.9745 40.0529C18.3363 40.0529 16.7075 39.8564 15.1323 39.4676C14.5155 39.3163 13.8933 39.1314 13.2818 38.9159C13.2177 38.8928 13.1525 38.8697 13.0884 38.8465C12.3297 38.5713 11.5836 38.2487 10.8659 37.8841C10.7692 37.8357 10.6726 37.7863 10.5759 37.7337C10.4687 37.6791 10.3626 37.6214 10.2554 37.5614C10.1188 37.4868 9.98321 37.409 9.84765 37.3302C9.39371 37.0675 8.9471 36.7838 8.52046 36.4885L8.49209 36.4697C8.46687 36.4518 8.44165 36.435 8.41748 36.4171C8.43323 36.3341 8.44796 36.2584 8.46161 36.1911C8.51415 35.9274 8.54883 35.7824 8.54883 35.7824L11.426 29.8389L12.2278 28.1828L12.6187 28.022L15.5715 26.8083H22.7886L25.0658 27.7498C25.0658 27.7498 25.0774 27.7929 25.1005 27.8759C25.3274 28.6903 26.6515 33.314 28.7059 37.8378C28.7342 37.9008 28.7637 37.9649 28.7931 38.0291Z" fill="#3D5CFF"/>
<path d="M20.7113 25.1992C24.3302 25.1992 27.2639 22.2655 27.2639 18.6466C27.2639 15.0277 24.3302 12.094 20.7113 12.094C17.0924 12.094 14.1587 15.0277 14.1587 18.6466C14.1587 22.2655 17.0924 25.1992 20.7113 25.1992Z" fill="#A0616A"/>
<path d="M12.6302 27.9655L12.619 28.0219L10.6212 37.5204L10.6039 37.6031L10.5761 37.734C10.4686 37.6791 10.3626 37.6212 10.2558 37.5618C10.119 37.4866 9.98362 37.4092 9.84753 37.3302C9.39414 37.0678 8.94753 36.7836 8.52046 36.4889L8.49189 36.4693C8.46708 36.452 8.44151 36.4347 8.41745 36.4174C8.09114 36.1896 7.77309 35.952 7.46257 35.7069C7.46031 35.7054 7.45881 35.7039 7.45655 35.7016C6.90241 35.255 6.36858 34.7746 5.85805 34.264C5.52873 33.9347 5.21219 33.5956 4.90918 33.2475L4.95505 33.055L4.95956 33.0355L5.0167 32.7904C5.52497 30.6437 7.24452 28.9964 9.41068 28.5813L12.2889 28.0302L12.6302 27.9655Z" fill="#3D5CFF"/>
<path d="M33.0374 35.2517C32.1894 35.9736 31.2804 36.6273 30.321 37.201C30.2275 37.2578 30.1318 37.3134 30.0362 37.3691C29.6285 37.6045 29.2134 37.8241 28.7931 38.0291C28.2414 38.298 27.6792 38.5408 27.1086 38.7562L27.0645 38.5481L24.8083 27.8202L25.1005 27.8759L28.0281 28.4371C30.1939 28.8522 31.9141 30.4998 32.4216 32.6466L32.9817 35.0184L33.0374 35.2517Z" fill="#3D5CFF"/>
<path d="M28.2572 20.3982C28.087 21.0329 27.2305 23.8691 25.0374 24.466C24.6066 24.5837 23.5789 24.7192 23.8511 24.466C23.9131 24.4082 23.973 24.3514 24.0329 24.2957C26.413 22.0575 27.384 20.6893 26.9405 17.6524C26.6589 15.7188 23.4518 13.9629 21.6475 13.7884C20.8867 13.715 19.9157 13.9723 19.2747 14.6355C18.2165 15.7283 18.3909 19.0826 17.8046 21.0529C17.647 21.5804 17.4358 22.0091 17.132 22.2687C16.9429 22.4305 16.8221 22.2245 16.7327 21.8872C16.5425 21.1705 16.4932 19.8581 16.2231 20.229C15.4423 21.304 16.1863 22.7289 16.4112 23.2785C16.4574 23.391 16.5047 23.4992 16.552 23.6022V23.6032C16.5793 23.662 16.6077 23.7209 16.635 23.7767V23.7777C17.3853 25.3077 18.2869 25.8551 19.0813 26.8083C19.3934 27.1813 19.6887 27.6153 19.9525 28.1954C20.1332 28.5926 20.2635 28.9919 20.3529 29.3838C20.8079 31.3489 20.2677 33.1343 20.1217 33.6198C19.8159 34.6307 19.2905 36.3676 17.7489 37.3481C15.8132 38.5797 14.0468 37.4942 13.2019 38.6638C13.1914 38.6774 13.182 38.6911 13.1725 38.7047C13.141 38.752 13.1126 38.7993 13.0885 38.8465C12.3298 38.5713 11.5837 38.2487 10.866 37.8841C10.7693 37.8357 10.6726 37.7863 10.5759 37.7337C10.4687 37.6791 10.3626 37.6214 10.2554 37.5614C10.2512 37.4794 10.247 37.3975 10.2438 37.3145C10.1819 35.8927 10.2754 34.3301 10.6295 32.7717C10.8565 31.7766 11.0814 30.7898 11.426 29.8388C11.6509 29.2189 11.9262 28.6136 12.2888 28.0304C12.5788 27.5617 12.9235 27.1067 13.3417 26.6695C14.2601 25.7101 15.0766 25.3098 15.2059 24.2967C15.3908 22.8508 13.885 22.4158 13.3417 20.229C12.9708 18.7337 12.583 16.5785 12.9592 15.1262C13.3144 13.7538 13.6233 12.5632 14.6542 11.3968C14.9022 11.1172 16.9377 9.17319 19.2957 8.85373C20.3823 8.7077 21.3512 10.099 22.6647 10.3985C24.1747 10.7421 25.0396 10.9387 25.8844 11.5849C27.3125 12.6756 27.715 14.3066 28.088 15.8218C28.3801 17.0072 28.7585 18.5404 28.2572 20.3982Z" fill="#2F2E41"/>
<path d="M34.1421 5.97984C30.3647 2.2024 25.3421 0.121948 20 0.121948C14.6579 0.121948 9.63534 2.2024 5.85789 5.97984C2.08045 9.75728 0 14.7798 0 20.1219C0 24.9979 1.73308 29.6077 4.90902 33.2475C5.21203 33.5956 5.52857 33.9347 5.85789 34.264C6.36842 34.7746 6.90225 35.255 7.45639 35.7016C7.45865 35.7039 7.46015 35.7054 7.46241 35.7069C11.0045 38.5678 15.3827 40.1219 20 40.1219C25.3421 40.1219 30.3647 38.0415 34.1421 34.264C37.9195 30.4866 40 25.4641 40 20.1219C40 14.7798 37.9195 9.75728 34.1421 5.97984ZM33.003 35.1069C31.7195 36.2234 30.291 37.1768 28.7504 37.9362C28.2098 38.2031 27.6556 38.446 27.0887 38.6633C24.8865 39.5084 22.4962 39.9716 20 39.9716C17.591 39.9716 15.2812 39.54 13.1436 38.7505C12.2662 38.4272 11.418 38.043 10.6038 37.6031C10.4842 37.5385 10.3654 37.4731 10.2474 37.4062C9.62632 37.0543 9.02556 36.6701 8.44887 36.255C7.16015 35.3302 5.98647 34.255 4.95489 33.055C1.96166 29.5783 0.150376 25.058 0.150376 20.1219C0.150376 9.17683 9.05489 0.272324 20 0.272324C30.9451 0.272324 39.8496 9.17683 39.8496 20.1219C39.8496 26.0979 37.1955 31.4656 33.003 35.1069Z" fill="#3F3D56"/>
</g>
<defs>
<clipPath id="clip0_0_3132">
<rect y="0.121948" width="40" height="40" rx="20" fill="white"/>
</clipPath>
</defs>
</svg>
