<svg width="18" height="19" viewBox="0 0 18 19" fill="none" xmlns="http://www.w3.org/2000/svg">
<path d="M13.5082 10.25H15C14.7247 12.1662 13.26 13.7622 11.2672 14.462V15.5H6.73275V14.462C4.74 13.7622 3.27525 12.167 3 10.25H13.5082ZM13.5082 10.25C13.8605 10.2487 14.2012 10.1235 14.4704 9.8962C14.7396 9.66894 14.9202 9.35418 14.9806 9.00709C15.041 8.66001 14.9772 8.30274 14.8006 7.99792C14.624 7.6931 14.3457 7.46018 14.0145 7.33999M13.5082 10.25H13.5M14.0145 7.33999C13.854 7.28224 13.68 7.24999 13.5 7.24999M14.0145 7.33999C14.6415 6.56524 14.5793 5.33749 13.8045 4.71049C13.4321 4.40939 12.9554 4.26839 12.4791 4.31846C12.0029 4.36852 11.5659 4.60554 11.2643 4.97749C11.0445 3.85099 9.95325 3.36199 8.82675 3.58249C8.5588 3.63459 8.30374 3.73898 8.07616 3.88969C7.84857 4.04041 7.65292 4.2345 7.50038 4.46087C7.34784 4.68724 7.24141 4.94145 7.18717 5.20897C7.13292 5.4765 7.13193 5.75209 7.18425 6.01999C6.735 5.12974 5.71425 4.44799 4.61625 5.00074C3.72525 5.44999 3.3375 6.64399 3.78675 7.53499M3.78675 7.53499C3.27825 7.74874 3 8.25199 3 8.83774C3 9.61774 3.63225 10.25 4.41225 10.25M3.78675 7.53499C4.002 7.44499 4.60875 7.23499 5.3205 7.79149M9.27675 7.12324C9.63858 6.95798 10.0512 6.94321 10.4239 7.08217C10.7967 7.22113 11.0989 7.50244 11.2643 7.86424" stroke="#3D5CFF" stroke-width="1.5" stroke-linecap="round" stroke-linejoin="round"/>
</svg>
