<svg width="16" height="17" viewBox="0 0 16 17" fill="none" xmlns="http://www.w3.org/2000/svg">
<path d="M5.93974 13.902C5.81307 13.902 5.68641 13.8553 5.58641 13.7553C5.39307 13.562 5.39307 13.242 5.58641 13.0486L9.93307 8.70196C10.2531 8.38196 10.2531 7.86196 9.93307 7.54196L5.58641 3.19529C5.39307 3.00196 5.39307 2.68196 5.58641 2.48863C5.77974 2.29529 6.09974 2.29529 6.29307 2.48863L10.6397 6.83529C10.9797 7.17529 11.1731 7.63529 11.1731 8.12196C11.1731 8.60863 10.9864 9.06863 10.6397 9.40863L6.29307 13.7553C6.19307 13.8486 6.06641 13.902 5.93974 13.902Z" fill="white"/>
</svg>
