<svg width="24" height="24" viewBox="0 0 24 24" fill="none" xmlns="http://www.w3.org/2000/svg">
<path d="M23.464 11.3889C23.3024 11.0967 23.1167 10.8344 22.9211 10.587C22.9042 10.4165 22.8872 10.2459 22.8612 10.0504C22.8113 9.67341 22.8902 9.2944 23.0898 8.95529C23.6337 8.02173 25.1896 4.74229 22.3053 1.65436C19.2624 -1.18024 15.982 0.376693 15.0498 0.920274C14.7095 1.11776 14.3342 1.19655 13.954 1.14868C13.7564 1.12274 13.5847 1.10579 13.4141 1.08883C13.1626 0.890352 12.8891 0.699849 12.5488 0.514334C9.31624 -0.970788 7.06173 1.16364 6.44696 1.85284C6.25135 2.07326 5.97689 2.22586 5.6745 2.28471C4.85713 2.4413 4.35213 2.60886 3.90702 2.75748L3.67049 2.83527C2.70342 3.14746 1.91898 3.8187 1.46189 4.72633C1.14153 5.36168 1.0098 6.07082 1.08265 6.77897C1.12556 7.20287 1.02177 7.60382 0.780253 7.94094C0.667478 8.09853 0.564683 8.26709 0.47586 8.44462C-0.0401119 9.46695 -0.0830263 10.6658 0.358094 11.731C0.445919 11.9435 0.467876 12.145 0.424961 12.3325C0.11957 13.6361 -0.0221477 16.2263 0.00280256 20.0334C0.0167747 22.2047 1.79623 23.982 3.9689 23.997C4.25732 23.999 4.53776 24 4.81122 24C8.16154 24 10.4689 23.8574 11.6745 23.5751C11.8622 23.5312 12.0638 23.5542 12.2753 23.6409C13.3412 24.0838 14.5398 24.0389 15.5628 23.5242C15.7434 23.4325 15.9111 23.3317 16.0688 23.218C16.4031 22.9797 16.7973 22.87 17.2305 22.9168C17.9351 22.9876 18.6476 22.856 19.2834 22.5368C20.1906 22.08 20.8632 21.2961 21.1756 20.3296L21.2534 20.0932C21.4011 19.6484 21.5688 19.1437 21.7275 18.3258C21.7854 18.0236 21.9381 17.7503 22.1586 17.5548C22.8483 16.9404 24.986 14.6863 23.466 11.3919L23.464 11.3889ZM16.0548 2.64377C16.8652 2.17001 18.966 1.27136 20.8952 3.06368C22.7395 5.04051 21.8383 7.14003 21.3662 7.94992C20.949 8.66405 20.7774 9.50186 20.8842 10.3098C21.0019 11.2014 21.0009 11.73 21.0009 12.2896V12.5988C21.0049 13.2301 20.7614 13.8236 20.3143 14.2694C20.0049 14.5786 19.6167 14.791 19.1896 14.8848C18.1556 15.1142 17.2864 15.6787 16.6766 16.5145C16.6037 16.6143 16.5229 16.708 16.4311 16.7988C15.8941 17.3364 15.1446 17.5997 14.3791 17.5309C13.7025 17.4621 13.0228 17.6306 12.4071 18.0057C11.0099 18.8564 7.91303 19.5576 5.40503 20.0024L11.444 13.9672H16.0209C16.5728 13.9672 17.0189 13.5214 17.0189 12.9698C17.0189 12.4182 16.5728 11.9724 16.0209 11.9724H13.44L16.7265 8.68799C17.1167 8.29801 17.1167 7.66765 16.7265 7.27767C16.3362 6.88769 15.7055 6.88769 15.3153 7.27767L12.0288 10.5621V7.98283C12.0288 7.43127 11.5817 6.98543 11.0308 6.98543C10.4799 6.98543 10.0328 7.43127 10.0328 7.98283V12.5569L3.99385 18.5921C4.43896 16.0867 5.14056 12.9927 5.99286 11.5944C6.36712 10.98 6.53179 10.2988 6.46792 9.62454C6.39406 8.85755 6.66153 8.1095 7.20145 7.57091C7.29028 7.48114 7.38509 7.40035 7.48289 7.32954C8.32122 6.71813 8.8861 5.8484 9.11464 4.8151C9.20845 4.38921 9.42203 4.00123 9.73141 3.69204C10.1735 3.25019 10.7614 3.00583 11.3881 3.00583H11.7105C12.2763 3.00583 12.8003 3.00583 13.6915 3.12252C14.4999 3.22825 15.3362 3.05769 16.0528 2.64178L16.0548 2.64377ZM2.2593 9.33729C2.30222 9.25052 2.35212 9.17172 2.40402 9.09792C2.93097 8.36284 3.16051 7.49012 3.06769 6.5755C3.03376 6.24736 3.09564 5.91822 3.24434 5.62299C3.45991 5.19511 3.82918 4.87993 4.28427 4.73132L4.53477 4.64953C4.95992 4.5079 5.36212 4.37525 6.05175 4.2426C6.54776 4.14685 7.01083 3.9354 7.41303 3.64217C7.31123 3.88254 7.22241 4.12889 7.16552 4.38622C7.04377 4.93678 6.74636 5.39858 6.30524 5.72074C6.1236 5.85339 5.95095 6.00001 5.78927 6.16159C4.82818 7.12208 4.35113 8.4536 4.48088 9.81405C4.50982 10.1202 4.39305 10.3866 4.28926 10.5561C3.2124 12.3225 2.44194 15.8712 1.99982 18.4156C2.02078 15.7017 2.14753 13.7238 2.36809 12.7823C2.50681 12.1898 2.44992 11.5605 2.20242 10.965C1.98385 10.4364 2.00381 9.84397 2.2603 9.33629L2.2593 9.33729ZM19.3582 19.4628L19.2764 19.7132C19.1297 20.168 18.8123 20.537 18.3842 20.7535C18.0897 20.9011 17.7564 20.9609 17.4301 20.929C16.5109 20.8403 15.6416 21.0677 14.9061 21.5933C14.8312 21.6471 14.7514 21.696 14.6636 21.7389C14.1606 21.9942 13.5678 22.0142 13.0378 21.7938C12.44 21.5484 11.8133 21.4906 11.2194 21.6292C10.2773 21.8486 8.30126 21.9773 5.58068 21.9972C8.12761 21.5544 11.6795 20.7854 13.448 19.7082C13.6177 19.6045 13.8851 19.4888 14.1895 19.5167C15.5518 19.6514 16.8832 19.1706 17.8432 18.2091C18.0059 18.0465 18.1536 17.874 18.2864 17.6915C18.6077 17.2526 19.0688 16.9544 19.6207 16.8327C19.8782 16.7759 20.1247 16.6881 20.3652 16.5854C20.0728 16.9863 19.8602 17.4491 19.7654 17.9448C19.6317 18.634 19.4979 19.037 19.3572 19.4618L19.3582 19.4628Z" fill="#3D5CFF"/>
</svg>
