<svg width="24" height="24" viewBox="0 0 24 24" fill="none" xmlns="http://www.w3.org/2000/svg">
<g clip-path="url(#clip0_123_667)">
<path d="M20.356 3.188C20.83 2.79419 21.2199 2.30896 21.5023 1.76124C21.7848 1.21352 21.954 0.614537 22 0L20 0C19.8917 0.675355 19.5351 1.28591 19 1.712C18.4652 1.28572 18.1086 0.675255 18 0L16 0C16.0459 0.614068 16.2149 1.21262 16.497 1.75998C16.7791 2.30734 17.1685 2.79231 17.642 3.186C16.6044 3.46954 15.6874 4.08363 15.0302 4.9352C14.373 5.78677 14.0113 6.82938 14 7.905C13.7391 9.42459 12.9621 10.8077 11.8 11.821C10.7767 12.9528 9.41567 13.7243 7.919 14.021C6.84506 14.0372 5.80486 14.3987 4.95242 15.0521C4.09998 15.7056 3.4806 16.6161 3.186 17.649C2.79294 17.1742 2.30825 16.7835 1.76085 16.5002C1.21346 16.2169 0.614591 16.0468 0 16L0 18C0.675617 18.1084 1.28647 18.465 1.713 19C1.2866 19.5352 0.675683 19.8918 0 20L0 22C0.614017 21.9539 1.21249 21.7848 1.75982 21.5027C2.30715 21.2206 2.79216 20.8313 3.186 20.358C3.48416 21.4054 4.11517 22.3274 4.98367 22.9844C5.85217 23.6415 6.91096 23.998 8 24C8.962 24 14.011 23.729 18.865 18.885C23.753 14.014 24 8.987 24 8.029C24.0008 6.93581 23.6456 5.8721 22.9881 4.9987C22.3307 4.1253 21.4067 3.4897 20.356 3.188ZM17.456 17.469C13.155 21.761 8.82 22 8 22C7.20798 22 6.44808 21.6868 5.88607 21.1288C5.32406 20.5707 5.00554 19.813 5 19.021C4.99705 18.6276 5.07226 18.2375 5.22126 17.8734C5.37027 17.5093 5.5901 17.1785 5.868 16.9C6.15744 16.6118 6.50166 16.3845 6.88037 16.2314C7.25907 16.0784 7.66459 16.0028 8.073 16.009C10.0534 15.6984 11.8679 14.7196 13.215 13.235C14.7542 11.8724 15.7443 9.99572 16 7.956C16.0069 7.16651 16.3265 6.41197 16.8889 5.85783C17.4513 5.3037 18.2105 4.9952 19 5C19.7992 5.00476 20.5639 5.32634 21.1263 5.89419C21.6887 6.46204 22.0029 7.22978 22 8.029C22 8.849 21.781 13.156 17.457 17.469H17.456Z" fill="#3D5CFF"/>
</g>
<defs>
<clipPath id="clip0_123_667">
<rect width="24" height="24" fill="white"/>
</clipPath>
</defs>
</svg>
