<svg width="25" height="24" viewBox="0 0 25 24" fill="none" xmlns="http://www.w3.org/2000/svg">
<path d="M12.375 15.75C10.305 15.75 8.625 14.07 8.625 12C8.625 9.93 10.305 8.25 12.375 8.25C14.445 8.25 16.125 9.93 16.125 12C16.125 14.07 14.445 15.75 12.375 15.75ZM12.375 9.75C11.135 9.75 10.125 10.76 10.125 12C10.125 13.24 11.135 14.25 12.375 14.25C13.615 14.25 14.625 13.24 14.625 12C14.625 10.76 13.615 9.75 12.375 9.75Z" fill="#292D32"/>
<path d="M15.585 22.19C15.375 22.19 15.165 22.16 14.955 22.11C14.335 21.94 13.815 21.55 13.485 21L13.365 20.8C12.775 19.78 11.965 19.78 11.375 20.8L11.265 20.99C10.935 21.55 10.415 21.95 9.795 22.11C9.165 22.28 8.515 22.19 7.965 21.86L6.245 20.87C5.635 20.52 5.195 19.95 5.005 19.26C4.825 18.57 4.915 17.86 5.265 17.25C5.555 16.74 5.635 16.28 5.465 15.99C5.295 15.7 4.865 15.53 4.275 15.53C2.815 15.53 1.625 14.34 1.625 12.88V11.12C1.625 9.66 2.815 8.47 4.275 8.47C4.865 8.47 5.295 8.3 5.465 8.01C5.635 7.72 5.565 7.26 5.265 6.75C4.915 6.14 4.825 5.42 5.005 4.74C5.185 4.05 5.625 3.48 6.245 3.13L7.975 2.14C9.105 1.47 10.595 1.86 11.275 3.01L11.395 3.21C11.985 4.23 12.795 4.23 13.385 3.21L13.495 3.02C14.175 1.86 15.665 1.47 16.805 2.15L18.525 3.14C19.135 3.49 19.575 4.06 19.765 4.75C19.945 5.44 19.855 6.15 19.505 6.76C19.215 7.27 19.135 7.73 19.305 8.02C19.475 8.31 19.905 8.48 20.495 8.48C21.955 8.48 23.145 9.67 23.145 11.13V12.89C23.145 14.35 21.955 15.54 20.495 15.54C19.905 15.54 19.475 15.71 19.305 16C19.135 16.29 19.205 16.75 19.505 17.26C19.855 17.87 19.955 18.59 19.765 19.27C19.585 19.96 19.145 20.53 18.525 20.88L16.795 21.87C16.415 22.08 16.005 22.19 15.585 22.19ZM12.375 18.49C13.265 18.49 14.095 19.05 14.665 20.04L14.775 20.23C14.895 20.44 15.095 20.59 15.335 20.65C15.575 20.71 15.815 20.68 16.015 20.56L17.745 19.56C18.005 19.41 18.205 19.16 18.285 18.86C18.365 18.56 18.325 18.25 18.175 17.99C17.605 17.01 17.535 16 17.975 15.23C18.415 14.46 19.325 14.02 20.465 14.02C21.105 14.02 21.615 13.51 21.615 12.87V11.11C21.615 10.48 21.105 9.96 20.465 9.96C19.325 9.96 18.415 9.52 17.975 8.75C17.535 7.98 17.605 6.97 18.175 5.99C18.325 5.73 18.365 5.42 18.285 5.12C18.205 4.82 18.015 4.58 17.755 4.42L16.025 3.43C15.595 3.17 15.025 3.32 14.765 3.76L14.655 3.95C14.085 4.94 13.255 5.5 12.365 5.5C11.475 5.5 10.645 4.94 10.075 3.95L9.965 3.75C9.715 3.33 9.155 3.18 8.725 3.43L6.995 4.43C6.735 4.58 6.535 4.83 6.455 5.13C6.375 5.43 6.415 5.74 6.565 6C7.135 6.98 7.205 7.99 6.765 8.76C6.325 9.53 5.415 9.97 4.275 9.97C3.635 9.97 3.125 10.48 3.125 11.12V12.88C3.125 13.51 3.635 14.03 4.275 14.03C5.415 14.03 6.325 14.47 6.765 15.24C7.205 16.01 7.135 17.02 6.565 18C6.415 18.26 6.375 18.57 6.455 18.87C6.535 19.17 6.725 19.41 6.985 19.57L8.715 20.56C8.925 20.69 9.175 20.72 9.405 20.66C9.645 20.6 9.845 20.44 9.975 20.23L10.085 20.04C10.655 19.06 11.485 18.49 12.375 18.49Z" fill="#292D32"/>
</svg>
