<svg width="18" height="19" viewBox="0 0 18 19" fill="none" xmlns="http://www.w3.org/2000/svg">
<path d="M6.1875 7.25C6.03832 7.25 5.89524 7.30926 5.78975 7.41475C5.68426 7.52024 5.625 7.66332 5.625 7.8125V11.1875C5.625 11.498 5.877 11.75 6.1875 11.75H9.5625C9.71169 11.75 9.85476 11.6907 9.96025 11.5852C10.0657 11.4798 10.125 11.3367 10.125 11.1875V7.8125C10.125 7.66332 10.0657 7.52024 9.96025 7.41475C9.85476 7.30926 9.71169 7.25 9.5625 7.25H6.1875ZM6.75 10.625V8.375H9V10.625H6.75ZM1.5 6.3125C1.5 5.36767 1.87533 4.46153 2.54343 3.79343C3.21153 3.12533 4.11767 2.75 5.0625 2.75H12.9375C13.629 2.75004 14.3056 2.95134 14.8846 3.32933C15.4637 3.70733 15.9202 4.24568 16.1985 4.87872C16.4768 5.51175 16.5649 6.2121 16.452 6.89433C16.339 7.57656 16.03 8.21117 15.5625 8.72075V14.5625C15.5625 15.0101 15.3847 15.4393 15.0682 15.7557C14.7518 16.0722 14.3226 16.25 13.875 16.25H4.125C3.67745 16.25 3.24823 16.0722 2.93176 15.7557C2.61529 15.4393 2.4375 15.0101 2.4375 14.5625V8.72075C1.83396 8.06403 1.49933 7.20443 1.5 6.3125ZM5.0625 3.875C4.57477 3.87507 4.09827 4.02146 3.69463 4.29524C3.29098 4.56902 2.97875 4.95759 2.79831 5.41072C2.61787 5.86384 2.57751 6.36068 2.68246 6.83699C2.78741 7.3133 3.03283 7.74717 3.387 8.0825C3.44251 8.13512 3.4867 8.19851 3.51687 8.26879C3.54705 8.33907 3.56257 8.41477 3.5625 8.49125V14.5625C3.5625 14.873 3.8145 15.125 4.125 15.125H11.625C11.7742 15.125 11.9173 15.0657 12.0227 14.9602C12.1282 14.8548 12.1875 14.7117 12.1875 14.5625V8.7935C12.1875 8.70181 12.2099 8.61152 12.2528 8.53047C12.2957 8.44943 12.3577 8.38009 12.4335 8.3285C12.8647 8.03544 13.1906 7.61185 13.3633 7.11991C13.536 6.62798 13.5464 6.09363 13.393 5.59534C13.2396 5.09704 12.9305 4.66107 12.511 4.35143C12.0916 4.04179 11.5839 3.87481 11.0625 3.875H5.0625Z" fill="#3D5CFF"/>
</svg>
