<svg width="38" height="38" viewBox="0 0 38 38" fill="none" xmlns="http://www.w3.org/2000/svg">
<path d="M22.5942 9.49998C21.7234 11.0041 22.2459 12.9516 23.75 13.8225C25.2542 14.6933 27.2017 14.1708 28.0725 12.6666C28.9434 11.1625 28.4209 9.21498 26.9167 8.34414C25.4125 7.47331 23.465 7.99581 22.5942 9.49998Z" fill="#3D5CFF"/>
<path d="M25.08 16.4825L20.9633 14.1075C19.3516 13.1652 18.1227 11.6861 17.4917 9.92909C16.8606 8.17205 16.8677 6.24904 17.5116 4.49668C17.6444 4.14853 17.6487 3.76449 17.524 3.41341C17.3992 3.06233 17.1535 2.76717 16.8308 2.58085C15.9916 2.10585 14.8991 2.47002 14.5666 3.37252C13.0625 7.34668 14.0125 11.8433 16.8783 14.8833L9.5158 27.6292C9.07246 28.3892 9.34163 29.355 10.1016 29.7983C10.8616 30.2417 11.8275 29.9725 12.2708 29.2125L13.8541 26.4733L16.5933 28.0567L12.635 34.9125C12.1916 35.6725 12.4608 36.6383 13.2208 37.0817C13.9808 37.525 14.9466 37.2558 15.39 36.4958L24.5575 20.6308C25.3359 21.693 25.8389 22.9317 26.0213 24.2359C26.2036 25.5401 26.0597 26.8692 25.6025 28.1042C25.4726 28.4928 25.4987 28.9166 25.6751 29.2864C25.8515 29.6562 26.1645 29.9431 26.5482 30.0867C26.9319 30.2304 27.3564 30.2195 27.7322 30.0565C28.1081 29.8934 28.406 29.5908 28.5633 29.2125C30.0991 25.0642 29.2125 19.9658 25.08 16.4825ZM20.1875 6.01668C21.3275 6.66585 22.7683 6.28585 23.4333 5.14585C24.0825 4.00585 23.7025 2.56502 22.5625 1.90002C22.0172 1.5962 21.3744 1.51908 20.7727 1.68531C20.1711 1.85154 19.659 2.24778 19.3471 2.78843C19.0352 3.32908 18.9485 3.97073 19.1057 4.57477C19.263 5.17881 19.6515 5.69674 20.1875 6.01668Z" fill="#3D5CFF"/>
</svg>
