<svg width="38" height="38" viewBox="0 0 38 38" fill="none" xmlns="http://www.w3.org/2000/svg">
<path d="M25.6342 3.16667H12.3658C6.6025 3.16667 3.16667 6.6025 3.16667 12.3658V25.6183C3.16667 31.3975 6.6025 34.8333 12.3658 34.8333H25.6183C31.3817 34.8333 34.8175 31.3975 34.8175 25.6342V12.3658C34.8333 6.6025 31.3975 3.16667 25.6342 3.16667ZM13.4583 10.1017C15.0892 10.1017 16.435 11.4317 16.435 13.0783C16.435 14.725 15.105 16.055 13.4583 16.055C11.8117 16.055 10.4817 14.6933 10.4817 13.0625C10.4817 11.4317 11.8275 10.1017 13.4583 10.1017ZM19 30.21C14.7408 30.21 11.2733 26.7425 11.2733 22.4833C11.2733 21.375 12.1758 20.4567 13.2842 20.4567H24.6842C25.7925 20.4567 26.695 21.3592 26.695 22.4833C26.7267 26.7425 23.2592 30.21 19 30.21ZM24.5417 16.0233C22.9108 16.0233 21.565 14.6933 21.565 13.0467C21.565 11.4 22.895 10.07 24.5417 10.07C26.1883 10.07 27.5183 11.4 27.5183 13.0467C27.5183 14.6933 26.1725 16.0233 24.5417 16.0233Z" fill="#3D5CFF"/>
</svg>
