<svg width="30" height="30" viewBox="0 0 30 30" fill="none" xmlns="http://www.w3.org/2000/svg">
<path d="M9.86523 24.7803H7V15.5H9.86523V24.7803ZM15.0195 6C16.0675 6.0001 17.106 6.20385 18.0742 6.59961C19.0423 6.99546 19.9221 7.57635 20.6631 8.30762C21.4041 9.03893 21.9925 9.90687 22.3936 10.8623C22.7887 11.8038 22.994 12.8123 23 13.8311H23.001V13.8682L22.9961 24.7803H19.7822L15.0078 18.7207L15.0566 24.7803H12.2842V15.5H15.54L20.2881 21.5801L20.2432 13.916H20.2549C20.2549 13.2372 20.1197 12.5646 19.8574 11.9375C19.5951 11.3104 19.2103 10.7398 18.7256 10.2598C18.241 9.78002 17.6653 9.39938 17.0322 9.13965C16.399 8.87995 15.7196 8.74615 15.0342 8.74609C14.3488 8.74614 13.6693 8.88 13.0361 9.13965C12.4032 9.39934 11.8273 9.78013 11.3428 10.2598C10.8582 10.7397 10.4732 11.3105 10.2109 11.9375C9.95369 12.5526 9.8195 13.2114 9.81445 13.877H7.03711C7.03713 12.8426 7.24342 11.8179 7.64453 10.8623C8.04561 9.90689 8.63404 9.03891 9.375 8.30762C10.1161 7.57628 10.9965 6.99542 11.9648 6.59961C12.9331 6.20391 13.9715 6 15.0195 6Z" fill="#3D5CFF"/>
</svg>
