<svg width="38" height="38" viewBox="0 0 38 38" fill="none" xmlns="http://www.w3.org/2000/svg">
<path d="M17.0792 6.88156C17.0178 6.82017 16.9438 6.77298 16.8622 6.74332C16.7806 6.71366 16.6935 6.70224 16.607 6.70989C16.5206 6.71753 16.4368 6.74404 16.3617 6.78755C16.2866 6.83106 16.2219 6.89051 16.1723 6.96172C14.9197 8.74941 14.2485 10.8797 14.25 13.0625C14.251 13.5301 14.2822 13.9972 14.3435 14.4608L4.02562 28.5327C3.6879 28.9894 3.5259 29.5525 3.56923 30.1189C3.61257 30.6853 3.85836 31.2171 4.26163 31.6172L6.38281 33.7384C6.78287 34.1416 7.31473 34.3874 7.88112 34.4308C8.44752 34.4741 9.01058 34.3121 9.46734 33.9744L23.5407 23.6535C24.0037 23.7158 24.4703 23.748 24.9375 23.75C27.1195 23.7521 29.2492 23.0819 31.0368 21.8307C31.108 21.7811 31.1674 21.7164 31.211 21.6413C31.2545 21.5662 31.281 21.4824 31.2886 21.3959C31.2963 21.3095 31.2849 21.2224 31.2552 21.1408C31.2255 21.0592 31.1783 20.9851 31.1169 20.9238L17.0792 6.88156ZM17.4666 22.2122L15.0916 24.5872C14.9825 24.7021 14.8514 24.794 14.7061 24.8575C14.5609 24.9209 14.4044 24.9546 14.2459 24.9567C14.0874 24.9587 13.9301 24.929 13.7833 24.8693C13.6365 24.8095 13.5031 24.721 13.391 24.609C13.279 24.4969 13.1904 24.3635 13.1307 24.2167C13.071 24.0699 13.0413 23.9126 13.0433 23.7541C13.0453 23.5956 13.0791 23.4391 13.1425 23.2939C13.206 23.1486 13.2979 23.0175 13.4128 22.9084L15.7878 20.5334C16.0123 20.3201 16.3113 20.2029 16.6209 20.2069C16.9306 20.2108 17.2264 20.3356 17.4454 20.5546C17.6644 20.7736 17.7892 21.0694 17.7931 21.3791C17.7971 21.6887 17.6799 21.9877 17.4666 22.2122ZM33.7057 19.1603C33.6561 19.2318 33.5913 19.2914 33.5161 19.3351C33.4408 19.3788 33.3569 19.4054 33.2702 19.413C33.1836 19.4207 33.0963 19.4092 33.0146 19.3794C32.9328 19.3495 32.8586 19.3021 32.7973 19.2405L18.7595 5.20273C18.6979 5.14135 18.6505 5.06717 18.6206 4.98544C18.5908 4.90371 18.5793 4.81642 18.587 4.72975C18.5946 4.64309 18.6212 4.55916 18.6649 4.48391C18.7086 4.40866 18.7682 4.34393 18.8397 4.2943C20.8958 2.85957 23.3913 2.19418 25.8888 2.41474C28.3863 2.63529 30.7265 3.72772 32.4994 5.5006C34.2723 7.27347 35.3647 9.6137 35.5853 12.1112C35.8058 14.6087 35.1404 17.1042 33.7057 19.1603Z" fill="#3D5CFF"/>
</svg>
