<svg width="40" height="40" viewBox="0 0 40 40" fill="none" xmlns="http://www.w3.org/2000/svg">
<path d="M18.7474 6.95684C18.6702 6.54405 18.4321 6.17887 18.0856 5.94162C17.7391 5.70437 17.3125 5.61449 16.8997 5.69176C16.4869 5.76902 16.1217 6.0071 15.8845 6.35362C15.6472 6.70014 15.5573 7.12672 15.6346 7.53951L16.1492 10.2945C14.523 11.1312 13.2118 12.4725 12.4125 14.1174C11.6132 15.7623 11.3687 17.6221 11.7159 19.4177L12.1529 21.7499L12.2399 22.2186C12.6484 24.3941 11.8789 25.8001 11.2424 26.9654C10.7912 27.7888 10.408 28.4918 10.5505 29.2597C10.7247 30.1875 10.8989 31.1169 11.738 30.9602L31.8464 27.1966C32.6824 27.0383 32.5082 26.112 32.334 25.1858C32.1709 24.2928 31.327 23.4077 30.4419 22.4767C29.4824 21.4697 28.4739 20.4088 28.2189 19.2293C27.85 17.5113 27.7835 17.0332 27.7392 16.7165C27.7249 16.6168 27.7139 16.5313 27.6949 16.4283C27.3379 14.4519 26.289 12.667 24.736 11.3934C23.183 10.1198 21.2274 9.44064 19.2193 9.47751L18.7474 6.95684Z" fill="#3D5CFF"/>
<path fill-rule="evenodd" clip-rule="evenodd" d="M11.3533 7.68835C11.6644 7.9702 11.8508 8.36402 11.8716 8.78324C11.8923 9.20247 11.7458 9.61279 11.4642 9.92402C9.69875 11.8715 8.76459 14.0486 8.56667 16.669C8.53517 17.0879 8.33857 17.4771 8.02011 17.751C7.70165 18.0249 7.28742 18.1611 6.86854 18.1296C6.44967 18.0982 6.06046 17.9015 5.78654 17.5831C5.51262 17.2646 5.37642 16.8504 5.40792 16.4315C5.66125 13.1081 6.87884 10.2676 9.11609 7.7976C9.25577 7.64347 9.42447 7.51837 9.61252 7.42946C9.80058 7.34054 10.0043 7.28956 10.2121 7.27941C10.4198 7.26927 10.6276 7.30016 10.8234 7.37033C11.0192 7.4405 11.1993 7.54856 11.3533 7.68835Z" fill="#3D5CFF"/>
<path d="M15.1708 32.1065C16.2791 33.3731 17.8624 34.1648 19.6041 34.1648C22.1374 34.1648 24.1958 32.4231 24.8291 30.2065L15.1708 32.1065Z" fill="#3D5CFF"/>
</svg>
