<svg width="34" height="34" viewBox="0 0 34 34" fill="none" xmlns="http://www.w3.org/2000/svg">
<path d="M11.3333 24.0833V21.25H14.4146C14.2965 21.7222 14.2198 22.1944 14.1844 22.6667C14.149 23.1389 14.1549 23.6111 14.2021 24.0833H11.3333ZM11.3333 31.1667C9.37362 31.1667 7.70313 30.476 6.32188 29.0948C4.94063 27.7135 4.25001 26.0431 4.25001 24.0833V11.3333C3.47084 11.3333 2.80382 11.0559 2.24896 10.501C1.6941 9.94618 1.41667 9.27917 1.41667 8.5V5.66667C1.41667 4.8875 1.6941 4.22049 2.24896 3.66563C2.80382 3.11077 3.47084 2.83334 4.25001 2.83334H18.4167C19.1958 2.83334 19.8629 3.11077 20.4177 3.66563C20.9726 4.22049 21.25 4.8875 21.25 5.66667V8.5C21.25 9.27917 20.9726 9.94618 20.4177 10.501C19.8629 11.0559 19.1958 11.3333 18.4167 11.3333V15.6188C17.85 15.9729 17.3306 16.3861 16.8583 16.8583C16.3861 17.3306 15.9729 17.85 15.6188 18.4167H11.3333V15.5833H15.5833V11.3333H7.08334V24.0833C7.08334 25.2639 7.49653 26.2674 8.32292 27.0938C9.14931 27.9201 10.1528 28.3333 11.3333 28.3333C12.0417 28.3333 12.6851 28.1799 13.2635 27.8729C13.842 27.566 14.3319 27.141 14.7333 26.5979C14.9222 27.0701 15.1347 27.5188 15.3708 27.9438C15.6069 28.3688 15.8903 28.7819 16.2208 29.1833C15.5833 29.7972 14.8514 30.2813 14.025 30.6354C13.1986 30.9896 12.3014 31.1667 11.3333 31.1667ZM4.25001 8.5H18.4167V5.66667H4.25001V8.5ZM23.375 26.9167C24.3667 26.9167 25.2049 26.5743 25.8896 25.8896C26.5743 25.2049 26.9167 24.3667 26.9167 23.375C26.9167 22.3833 26.5743 21.5451 25.8896 20.8604C25.2049 20.1757 24.3667 19.8333 23.375 19.8333C22.3833 19.8333 21.5451 20.1757 20.8604 20.8604C20.1757 21.5451 19.8333 22.3833 19.8333 23.375C19.8333 24.3667 20.1757 25.2049 20.8604 25.8896C21.5451 26.5743 22.3833 26.9167 23.375 26.9167ZM30.6 32.5833L26.775 28.7583C26.2556 29.0889 25.7125 29.3368 25.1458 29.5021C24.5792 29.6674 23.9889 29.75 23.375 29.75C21.6042 29.75 20.099 29.1302 18.8594 27.8906C17.6198 26.651 17 25.1458 17 23.375C17 21.6042 17.6198 20.099 18.8594 18.8594C20.099 17.6198 21.6042 17 23.375 17C25.1458 17 26.651 17.6198 27.8906 18.8594C29.1302 20.099 29.75 21.6042 29.75 23.375C29.75 23.9889 29.6674 24.5792 29.5021 25.1458C29.3368 25.7125 29.0889 26.2556 28.7583 26.775L32.5833 30.6L30.6 32.5833Z" fill="#3D5CFF"/>
</svg>
