<svg width="40" height="40" viewBox="0 0 40 40" fill="none" xmlns="http://www.w3.org/2000/svg">
<path d="M15.0625 32.5833C13.8944 32.5833 12.8976 32.1705 12.0719 31.3448C11.2462 30.5191 10.8333 29.5222 10.8333 28.3542V12.6458C10.8333 11.4778 11.2462 10.4809 12.0719 9.65521C12.8976 8.82951 13.8944 8.41667 15.0625 8.41667H30.1667V26.5417C29.6632 26.5417 29.2352 26.7179 28.8828 27.0703C28.5304 27.4227 28.3542 27.8507 28.3542 28.3542C28.3542 28.8576 28.5304 29.2856 28.8828 29.638C29.2352 29.9905 29.6632 30.1667 30.1667 30.1667V32.5833H15.0625ZM13.25 24.5177C13.5319 24.3767 13.824 24.276 14.126 24.2156C14.4281 24.1552 14.7403 24.125 15.0625 24.125H15.6667V10.8333H15.0625C14.559 10.8333 14.1311 11.0095 13.7786 11.362C13.4262 11.7144 13.25 12.1424 13.25 12.6458V24.5177ZM18.0833 24.125H27.75V10.8333H18.0833V24.125ZM15.0625 30.1667H26.3302C26.2094 29.8847 26.1137 29.5977 26.0432 29.3057C25.9727 29.0137 25.9375 28.6965 25.9375 28.3542C25.9375 28.0319 25.9677 27.7198 26.0281 27.4177C26.0885 27.1156 26.1892 26.8236 26.3302 26.5417H15.0625C14.5389 26.5417 14.1059 26.7179 13.7635 27.0703C13.4212 27.4227 13.25 27.8507 13.25 28.3542C13.25 28.8778 13.4212 29.3108 13.7635 29.6531C14.1059 29.9955 14.5389 30.1667 15.0625 30.1667Z" fill="#3D5CFF"/>
</svg>
