<svg width="35" height="35" viewBox="0 0 35 35" fill="none" xmlns="http://www.w3.org/2000/svg">
<path d="M11.6667 29.1667C10.8646 29.1667 10.178 28.8811 9.60677 28.3099C9.03559 27.7387 8.75 27.0521 8.75 26.25V21.875H13.125V18.5938C12.2743 18.5451 11.4661 18.3568 10.7005 18.0286C9.9349 17.7005 9.23611 17.2083 8.60417 16.5521V14.9479H6.92708L2.1875 10.2083C3.0625 9.09028 4.1441 8.30035 5.43229 7.83854C6.72049 7.37674 8.02083 7.14584 9.33333 7.14584C9.98958 7.14584 10.6276 7.19445 11.2474 7.29167C11.8672 7.38889 12.4931 7.57118 13.125 7.83854V5.83334H30.625V24.7917C30.625 26.0069 30.1997 27.0399 29.349 27.8906C28.4983 28.7413 27.4653 29.1667 26.25 29.1667H11.6667ZM16.0417 21.875H24.7917V24.7917C24.7917 25.2049 24.9314 25.5512 25.2109 25.8307C25.4905 26.1102 25.8368 26.25 26.25 26.25C26.6632 26.25 27.0095 26.1102 27.2891 25.8307C27.5686 25.5512 27.7083 25.2049 27.7083 24.7917V8.75H16.0417V9.625L24.7917 18.375V20.4167H22.75L18.5937 16.2604L18.3021 16.5521C17.9618 16.8924 17.6033 17.1962 17.2266 17.4635C16.8498 17.7309 16.4549 17.9375 16.0417 18.0833V21.875ZM8.16667 12.0313H11.5208V15.1667C11.8125 15.3611 12.1163 15.4948 12.4323 15.5677C12.7483 15.6406 13.0764 15.6771 13.4167 15.6771C13.9757 15.6771 14.48 15.592 14.9297 15.4219C15.3793 15.2517 15.8229 14.9479 16.2604 14.5104L16.5521 14.2188L14.5104 12.1771C13.8056 11.4722 13.0156 10.9436 12.1406 10.5911C11.2656 10.2387 10.3299 10.0625 9.33333 10.0625C8.84722 10.0625 8.38542 10.099 7.94792 10.1719C7.51042 10.2448 7.07292 10.3542 6.63542 10.5L8.16667 12.0313ZM21.875 24.7917H11.6667V26.25H22.0937C22.0208 26.0313 21.9661 25.8003 21.9297 25.5573C21.8932 25.3142 21.875 25.059 21.875 24.7917Z" fill="#3D5CFF"/>
</svg>
