<svg width="38" height="38" viewBox="0 0 38 38" fill="none" xmlns="http://www.w3.org/2000/svg">
<path d="M10.5 31.3451C9.8125 31.3451 9.22396 31.1003 8.73438 30.6107C8.24479 30.1211 8 29.5326 8 28.8451V23.1576L11.4375 19.2513L13.2188 21.0326L10.7188 23.8451H27.7812L25.3438 21.0951L27.125 19.3138L30.5 23.1576V28.8451C30.5 29.5326 30.2552 30.1211 29.7656 30.6107C29.276 31.1003 28.6875 31.3451 28 31.3451H10.5ZM10.5 28.8451H28V26.3451H10.5V28.8451ZM17.5312 21.8138L13.125 17.4076C12.6458 16.9284 12.4115 16.3398 12.4219 15.6419C12.4323 14.944 12.6771 14.3555 13.1562 13.8763L19.2812 7.7513C19.7604 7.27214 20.3542 7.02214 21.0625 7.0013C21.7708 6.98047 22.3646 7.20964 22.8438 7.6888L27.25 12.0951C27.7292 12.5742 27.9792 13.1576 28 13.8451C28.0208 14.5326 27.7917 15.1159 27.3125 15.5951L21.0625 21.8451C20.5833 22.3242 19.9948 22.5586 19.2969 22.5482C18.599 22.5378 18.0104 22.293 17.5312 21.8138ZM25.5 13.8763L21.0938 9.47005L14.9062 15.6576L19.3125 20.0638L25.5 13.8763Z" fill="#3D5CFF"/>
</svg>
